<svg xmlns="http://www.w3.org/2000/svg" xmlns:xlink="http://www.w3.org/1999/xlink" fill="none" version="1.1"
	width="50" height="50" viewBox="0 0 50 50">
	<defs>
		<clipPath id="master_svg0_12_629">
			<rect x="0" y="0" width="50" height="50" rx="0" />
		</clipPath>
	</defs>
	<g style="mix-blend-mode:passthrough" clip-path="url(#master_svg0_12_629)">
		<g style="mix-blend-mode:passthrough">
			<path
				d="M11.026850494140625,17.27688101171875C11.840446494140625,16.46328901171875,13.159536494140625,16.46328901171875,13.973136494140626,17.27688101171875C13.973136494140626,17.27688101171875,24.999956494140626,28.30378701171875,24.999956494140626,28.30378701171875C24.999956494140626,28.30378701171875,36.026856494140624,17.27688101171875,36.026856494140624,17.27688101171875C36.84035649414062,16.46328901171875,38.159556494140624,16.46328901171875,38.973156494140625,17.27688101171875C39.78665649414063,18.09047701171875,39.78665649414063,19.40955701171875,38.973156494140625,20.22316701171875C38.973156494140625,20.22316701171875,26.473156494140625,32.72318701171875,26.473156494140625,32.72318701171875C25.659556494140624,33.53678701171875,24.340456494140625,33.53678701171875,23.526856494140624,32.72318701171875C23.526856494140624,32.72318701171875,11.026850494140625,20.22316701171875,11.026850494140625,20.22316701171875C10.213258494140625,19.40955701171875,10.213258494140625,18.09047701171875,11.026850494140625,17.27688101171875C11.026850494140625,17.27688101171875,11.026850494140625,17.27688101171875,11.026850494140625,17.27688101171875Z"
				fill-rule="evenodd" fill="#FFFFFF" fill-opacity="0.6000000238418579" />
		</g>
	</g>
</svg>
